<?xml version="1.0" encoding="utf-8"?>
<!-- Generator: Adobe Illustrator 18.0.0, SVG Export Plug-In . SVG Version: 6.00 Build 0)  -->
<!DOCTYPE svg PUBLIC "-//W3C//DTD SVG 1.1//EN" "http://www.w3.org/Graphics/SVG/1.1/DTD/svg11.dtd">
<svg version="1.1" id="图层_1" xmlns="http://www.w3.org/2000/svg" xmlns:xlink="http://www.w3.org/1999/xlink" x="0px" y="0px"
	 viewBox="0 0 1024 1024" style="enable-background:new 0 0 1024 1024;" xml:space="preserve">
<style type="text/css">
	.st0{fill-rule:evenodd;clip-rule:evenodd;}
</style>
<g>
	<g>
		<path d="M955.312,880.318H72.381c-18.226,0-33-14.774-33-33V242.232c0-18.226,14.774-33,33-33h882.931c18.226,0,33,14.774,33,33
			v605.086C988.312,865.544,973.538,880.318,955.312,880.318z M105.381,814.318h816.931V275.232H105.381V814.318z"/>
	</g>
	<g>
		<path d="M513.614,683.327c-7.985,0-15.969-2.884-22.274-8.652L48.607,269.648c-10.046-9.189-13.416-23.605-8.486-36.296
			c4.929-12.691,17.146-21.052,30.761-21.052h885.466c13.614,0,25.832,8.361,30.761,21.052c4.93,12.691,1.56,27.107-8.486,36.296
			L535.888,674.676C529.585,680.442,521.598,683.327,513.614,683.327z M155.843,278.3l357.771,327.301L871.385,278.3H155.843z"/>
	</g>
	<g>
		<path d="M75.181,871.114c-9.26,0-18.463-3.874-24.99-11.432c-11.912-13.794-10.387-34.632,3.406-46.545l329.358-284.44
			c13.796-11.911,34.634-10.386,46.545,3.406c11.912,13.794,10.387,34.632-3.406,46.545L96.736,863.089
			C90.5,868.474,82.821,871.114,75.181,871.114z"/>
	</g>
	<g>
		<path d="M949.732,875.716c-7.96,0-15.942-2.861-22.275-8.661l-322.395-295.18c-13.442-12.308-14.362-33.182-2.055-46.623
			c12.307-13.442,33.183-14.364,46.623-2.055l322.395,295.18c13.442,12.308,14.362,33.182,2.055,46.623
			C967.572,872.108,958.666,875.716,949.732,875.716z"/>
	</g>
</g>
</svg>
