<?xml version="1.0" encoding="utf-8"?>
<!-- Generator: Adobe Illustrator 18.0.0, SVG Export Plug-In . SVG Version: 6.00 Build 0)  -->
<!DOCTYPE svg PUBLIC "-//W3C//DTD SVG 1.1//EN" "http://www.w3.org/Graphics/SVG/1.1/DTD/svg11.dtd">
<svg version="1.1" id="图层_1" xmlns="http://www.w3.org/2000/svg" xmlns:xlink="http://www.w3.org/1999/xlink" x="0px" y="0px"
	 viewBox="0 0 1024 1024" style="enable-background:new 0 0 1024 1024;" xml:space="preserve">
<style type="text/css">
	.st0{fill-rule:evenodd;clip-rule:evenodd;}
</style>
<g>
	<path class="st0" d="M897.438,171.061l-235.222-39.232c-8.272-1.366-14.944-7.513-16.979-15.647l-17.095-68.324H407.755
		l-16.69,68.208c-2.009,8.171-8.682,14.365-16.979,15.763l-235.222,39.232v45.376h758.574V171.061L897.438,171.061z
		 M751.692,975.068l61.428-716.502H223.182l61.485,716.502H751.75H751.692 M645.527,363.109
		c0.653-11.569,10.38-20.525,21.962-20.225c11.59,0.522,20.631,10.316,20.167,21.906l-21.094,505.793
		c-0.496,11.264-9.761,20.147-21.035,20.167h-0.869c-5.581-0.226-10.843-2.662-14.626-6.771c-3.784-4.109-5.777-9.554-5.542-15.134
		l21.037-505.793V363.109 M497.984,363.979c0-7.536,4.021-14.5,10.548-18.268c6.526-3.768,14.567-3.768,21.094,0
		c6.526,3.768,10.547,10.732,10.547,18.268v505.736c0,11.65-9.444,21.094-21.094,21.094s-21.094-9.444-21.094-21.094V363.979
		 M370.666,342.827c11.562-0.301,21.28,8.621,21.964,20.167l21.094,505.793c0.463,11.59-8.577,21.442-20.167,21.905h-0.927
		c-11.287,0.01-20.57-8.89-21.037-20.167l-21.094-505.793c-0.457-11.6,8.568-21.377,20.167-21.848V342.827"/>
</g>
</svg>
