<?xml version="1.0" encoding="utf-8"?>
<!-- Generator: Adobe Illustrator 18.0.0, SVG Export Plug-In . SVG Version: 6.00 Build 0)  -->
<!DOCTYPE svg PUBLIC "-//W3C//DTD SVG 1.1//EN" "http://www.w3.org/Graphics/SVG/1.1/DTD/svg11.dtd">
<svg version="1.1" id="图层_1" xmlns="http://www.w3.org/2000/svg" xmlns:xlink="http://www.w3.org/1999/xlink" x="0px" y="0px"
	 viewBox="0 0 1024 1024" style="enable-background:new 0 0 1024 1024;" xml:space="preserve">
<style type="text/css">
	.st0{fill-rule:evenodd;clip-rule:evenodd;}
</style>
<g>
	<path d="M920.357,951.747H115.178c-23.182,0-42.042-18.86-42.042-42.042V177.419c0-23.182,18.86-42.042,42.042-42.042h805.179
		c23.182,0,42.042,18.86,42.042,42.042v732.285C962.399,932.886,943.538,951.747,920.357,951.747z M139.136,885.747h757.263V201.377
		H139.136V885.747z"/>
</g>
<g>
	<rect x="195.645" y="398.098" width="138.282" height="138.282"/>
</g>
<g>
	<rect x="366.086" y="398.098" width="138.282" height="138.282"/>
</g>
<g>
	<rect x="536.527" y="398.098" width="138.282" height="138.282"/>
</g>
<g>
	<rect x="706.967" y="398.098" width="138.282" height="138.282"/>
</g>
<g>
	<rect x="195.645" y="637.68" width="138.282" height="138.282"/>
</g>
<g>
	<rect x="366.086" y="637.68" width="138.282" height="138.282"/>
</g>
<g>
	<rect x="536.527" y="637.68" width="138.282" height="138.282"/>
</g>
<g>
	<rect x="706.967" y="637.68" width="138.282" height="138.282"/>
</g>
<g>
	<path d="M313.024,318.22c-18.226,0-33-14.774-33-33V68.686c0-18.226,14.774-33,33-33s33,14.774,33,33V285.22
		C346.024,303.446,331.249,318.22,313.024,318.22z"/>
</g>
<g>
	<path d="M720.367,318.22c-18.226,0-33-14.774-33-33V68.686c0-18.226,14.774-33,33-33s33,14.774,33,33V285.22
		C753.367,303.446,738.593,318.22,720.367,318.22z"/>
</g>
</svg>
