<?xml version="1.0" encoding="utf-8"?>
<!-- Generator: Adobe Illustrator 18.0.0, SVG Export Plug-In . SVG Version: 6.00 Build 0)  -->
<!DOCTYPE svg PUBLIC "-//W3C//DTD SVG 1.1//EN" "http://www.w3.org/Graphics/SVG/1.1/DTD/svg11.dtd">
<svg version="1.1" id="图层_1" xmlns="http://www.w3.org/2000/svg" xmlns:xlink="http://www.w3.org/1999/xlink" x="0px" y="0px"
	 viewBox="0 0 1024 1024" style="enable-background:new 0 0 1024 1024;" xml:space="preserve">
<style type="text/css">
	.st0{fill-rule:evenodd;clip-rule:evenodd;}
</style>
<path class="st0" d="M510.932,23.128c-271.751,0-492.049,220.298-492.049,492.049s220.298,492.049,492.049,492.049
	s492.049-220.298,492.049-492.049S782.684,23.128,510.932,23.128z M825.997,553.955H549.709v276.287
	c0,21.416-17.362,38.777-38.777,38.777c-21.416,0-38.777-17.362-38.777-38.777V553.955H195.868
	c-21.416,0-38.777-17.362-38.777-38.777c0-21.416,17.362-38.777,38.777-38.777h276.286V200.113
	c0-21.416,17.362-38.777,38.777-38.777c21.416,0,38.777,17.361,38.777,38.777V476.4h276.287c21.416,0,38.777,17.361,38.777,38.777
	C864.774,536.593,847.412,553.955,825.997,553.955z"/>
</svg>
