<?xml version="1.0" encoding="utf-8"?>
<!-- Generator: Adobe Illustrator 18.0.0, SVG Export Plug-In . SVG Version: 6.00 Build 0)  -->
<!DOCTYPE svg PUBLIC "-//W3C//DTD SVG 1.1//EN" "http://www.w3.org/Graphics/SVG/1.1/DTD/svg11.dtd">
<svg version="1.1" id="图层_1" xmlns="http://www.w3.org/2000/svg" xmlns:xlink="http://www.w3.org/1999/xlink" x="0px" y="0px"
	 viewBox="0 0 1024 1024" style="enable-background:new 0 0 1024 1024;" xml:space="preserve">
<style type="text/css">
	.st0{fill-rule:evenodd;clip-rule:evenodd;}
</style>
<g>
	<polygon class="st0" points="271.949,767.905 461.61,687.159 345.185,572.611 271.949,767.905 	"/>
	<polygon class="st0" points="835.298,320.982 715.117,197.045 366.78,540.687 491.655,670.258 835.298,320.982 	"/>
	<path class="st0" d="M934.307,172.735c0,0-31.811-35.207-68.428-61.965c-36.616-26.757-64.781,0-64.781,0l-61.966,61.965
		l125.809,125.34c0,0,53.046-53.517,69.366-71.823C950.628,207.944,934.307,172.735,934.307,172.735L934.307,172.735z"/>
	<path class="st0" d="M800.323,832.801c0,8.688-7.043,15.732-15.732,15.732H198.033c-8.688,0-15.732-7.043-15.732-15.732V250.883
		c0-8.687,7.043-15.731,15.732-15.731H570.94l77.672-82.643H118.16c-10.484,0-18.982,8.498-18.982,18.982v740.705
		c0,10.483,8.498,18.981,18.982,18.981h746.306c10.483,0,18.982-8.498,18.982-18.981V383.16l-83.122,77.152v372.489H800.323
		L800.323,832.801z"/>
</g>
</svg>
