<?xml version="1.0" encoding="utf-8"?>
<!-- Generator: Adobe Illustrator 18.0.0, SVG Export Plug-In . SVG Version: 6.00 Build 0)  -->
<!DOCTYPE svg PUBLIC "-//W3C//DTD SVG 1.1//EN" "http://www.w3.org/Graphics/SVG/1.1/DTD/svg11.dtd">
<svg version="1.1" id="图层_1" xmlns="http://www.w3.org/2000/svg" xmlns:xlink="http://www.w3.org/1999/xlink" x="0px" y="0px"
	 viewBox="0 0 1024 1024" style="enable-background:new 0 0 1024 1024;" xml:space="preserve">
<style type="text/css">
	.st0{fill-rule:evenodd;clip-rule:evenodd;}
</style>
<g>
	<g>
		<path d="M567.934,976.924h-88.127c-37.545,0-79.378-30.119-79.378-73.339v-57.641c-0.97-0.374-1.953-0.752-2.941-1.133
			c-10.069-3.872-21.649-8.326-33.017-13.414l-37.266,39.515c-13.922,13.926-32.413,21.595-52.069,21.595
			c-19.522,0-37.863-7.588-51.644-21.366l-62.254-61.895c-13.912-13.913-21.537-32.188-21.53-51.517
			c0.007-19.327,7.644-37.602,21.504-51.458l0.289-0.284l39.277-38.193c-5.166-11.487-9.696-23.212-13.629-33.394
			c-0.376-0.972-0.748-1.937-1.117-2.89h-57.661c-43.229,0-73.356-41.844-73.356-79.398v-88.126
			c0-37.544,30.127-79.377,73.356-79.377h57.62c0.367-0.953,0.737-1.916,1.11-2.886c3.878-10.087,8.337-21.688,13.437-33.076
			l-39.525-37.274c-28.633-28.657-28.721-75.178-0.197-103.702l61.872-62.265c13.894-13.906,32.162-21.534,51.496-21.534
			c19.344,0,37.634,7.636,51.499,21.501l0.29,0.294l38.171,39.267c11.502-5.173,23.238-9.705,33.432-13.641
			c0.959-0.37,1.912-0.738,2.854-1.102V112.53c0-43.217,41.842-73.335,79.395-73.335h88.125c37.546,0,79.382,30.118,79.382,73.335
			v57.628c0.949,0.366,1.91,0.735,2.877,1.107c10.087,3.879,21.686,8.34,33.068,13.438l37.27-39.509
			c13.924-13.913,32.41-21.575,52.054-21.575c19.522,0,37.865,7.592,51.649,21.376l62.254,61.875
			c13.92,13.908,21.549,32.191,21.537,51.535c-0.012,19.325-7.649,37.6-21.508,51.458l-0.298,0.294l-39.256,38.149
			c5.178,11.504,9.712,23.247,13.648,33.443c0.371,0.96,0.74,1.915,1.104,2.858h57.657c43.229,0,73.354,41.842,73.354,79.395v88.125
			c0,37.547-30.118,79.384-73.335,79.384h-57.646c-0.372,0.964-0.747,1.938-1.125,2.921c-3.873,10.068-8.328,21.647-13.418,33.016
			l39.519,37.271c28.644,28.641,28.747,75.162,0.23,103.703l-61.9,62.263c-13.909,13.905-32.173,21.528-51.49,21.528
			c-19.338,0-37.622-7.638-51.485-21.507l-0.285-0.29l-38.176-39.267c-11.497,5.174-23.228,9.706-33.416,13.643
			c-0.97,0.375-1.933,0.747-2.884,1.115v57.663C647.331,946.798,605.487,976.924,567.934,976.924z M352.534,758.776l19.972,11.336
			c13.189,7.487,31.371,14.48,45.981,20.1c9.173,3.527,17.095,6.574,23.51,9.553l16.933,7.86v95.96
			c0,6.13,10.798,14.839,20.878,14.839h88.127c10.09,0,20.896-8.719,20.896-14.854v-95.961l16.935-7.86
			c6.371-2.958,14.247-6.001,23.365-9.524c14.653-5.661,32.89-12.707,46.146-20.227l19.653-11.148l68.646,70.61
			c3.575,3.512,7.405,4.254,10.001,4.254c2.613,0,6.482-0.753,10.067-4.337l61.89-62.251c5.702-5.708,5.685-14.956,0.063-20.812
			l-71-66.93l11.336-19.971c7.49-13.196,14.485-31.378,20.105-45.986c3.524-9.161,6.568-17.072,9.542-23.48l7.86-16.936h95.967
			c6.128,0,14.835-10.801,14.835-20.884v-88.125c0-10.089-8.719-20.896-14.854-20.896h-95.96l-7.86-16.935
			c-2.957-6.37-5.995-14.24-9.514-23.353c-5.659-14.658-12.702-32.899-20.226-46.14l-11.172-19.664l70.622-68.63
			c3.516-3.581,4.26-7.417,4.262-10.016c0.002-2.615-0.749-6.483-4.331-10.063l-62.263-61.883
			c-3.754-3.754-8.091-4.305-10.348-4.305c-3.919,0-7.624,1.5-10.472,4.229l-66.935,70.991l-19.975-11.354
			c-13.181-7.493-31.383-14.493-46.009-20.118c-9.145-3.516-17.041-6.553-23.437-9.52l-16.942-7.858V112.53
			c0-6.128-10.8-14.836-20.882-14.836h-88.125c-10.089,0-20.895,8.708-20.895,14.836v95.972l-16.943,7.858
			c-6.365,2.953-14.231,5.989-23.34,9.506c-14.657,5.659-32.898,12.702-46.146,20.218l-19.655,11.151l-68.641-70.61
			c-3.577-3.512-7.417-4.254-10.02-4.254c-2.616,0-6.484,0.75-10.056,4.325l-61.882,62.274c-5.714,5.714-5.695,14.959-0.078,20.823
			l71.002,66.926l-11.349,19.975c-7.5,13.2-14.495,31.397-20.116,46.02c-3.518,9.15-6.556,17.052-9.524,23.454l-7.859,16.941h-95.95
			c-6.137,0-14.856,10.797-14.856,20.878v88.126c0,10.091,8.72,20.898,14.856,20.898h95.964l7.859,16.938
			c2.957,6.372,6,14.249,9.523,23.37c5.66,14.649,12.703,32.882,20.213,46.132l11.136,19.647l-70.605,68.654
			c-3.512,3.573-4.254,7.402-4.255,9.997c-0.001,2.615,0.751,6.485,4.338,10.072l62.251,61.892c3.744,3.743,8.082,4.294,10.34,4.294
			c3.921,0,7.627-1.5,10.47-4.231L352.534,758.776z M523.878,735.556c-60.775,0-117.912-23.666-160.886-66.639
			c-42.975-42.972-66.642-100.105-66.642-160.876c0-60.778,23.667-117.917,66.641-160.891s100.11-66.642,160.887-66.642
			c60.784,0,117.925,23.667,160.897,66.642c42.97,42.973,66.635,100.111,66.635,160.891c0,60.773-23.665,117.907-66.636,160.876
			C641.801,711.89,584.66,735.556,523.878,735.556z M523.878,339.007c-93.202,0-169.027,75.828-169.027,169.034
			c0,93.196,75.825,169.015,169.027,169.015c93.205,0,169.032-75.819,169.032-169.015
			C692.91,414.835,617.083,339.007,523.878,339.007z"/>
	</g>
</g>
</svg>
